<svg width="154" height="45" viewBox="0 0 154 45" fill="none" xmlns="http://www.w3.org/2000/svg">
<rect x="1" y="1" width="152" height="43" rx="9" fill="#3CDA5F"/>
<rect x="1" y="1" width="152" height="43" rx="9" stroke="url(#paint0_linear_5_164)" stroke-width="2"/>
<path d="M39.42 30.2C38.3133 30.2 37.3733 30 36.6 29.6C35.8267 29.2 35.1333 28.6133 34.52 27.84L36.08 26.28C36.4667 26.84 36.9267 27.28 37.46 27.6C37.9933 27.9067 38.6733 28.06 39.5 28.06C40.2733 28.06 40.8867 27.9 41.34 27.58C41.8067 27.26 42.04 26.82 42.04 26.26C42.04 25.7933 41.92 25.4133 41.68 25.12C41.44 24.8267 41.12 24.5867 40.72 24.4C40.3333 24.2 39.9 24.0267 39.42 23.88C38.9533 23.72 38.48 23.5467 38 23.36C37.5333 23.16 37.1 22.9133 36.7 22.62C36.3133 22.3267 36 21.9467 35.76 21.48C35.52 21.0133 35.4 20.42 35.4 19.7C35.4 18.8733 35.6 18.1733 36 17.6C36.4133 17.0133 36.9667 16.5667 37.66 16.26C38.3533 15.9533 39.1267 15.8 39.98 15.8C40.9 15.8 41.72 15.98 42.44 16.34C43.1733 16.7 43.7667 17.16 44.22 17.72L42.66 19.28C42.26 18.8267 41.84 18.4933 41.4 18.28C40.9733 18.0533 40.48 17.94 39.92 17.94C39.2267 17.94 38.68 18.08 38.28 18.36C37.8933 18.64 37.7 19.0333 37.7 19.54C37.7 19.9667 37.82 20.3133 38.06 20.58C38.3 20.8333 38.6133 21.0533 39 21.24C39.4 21.4133 39.8333 21.58 40.3 21.74C40.78 21.9 41.2533 22.08 41.72 22.28C42.2 22.48 42.6333 22.74 43.02 23.06C43.42 23.3667 43.74 23.7667 43.98 24.26C44.22 24.7533 44.34 25.3733 44.34 26.12C44.34 27.3733 43.8933 28.3667 43 29.1C42.12 29.8333 40.9267 30.2 39.42 30.2ZM52.9133 30V24.46C52.9133 23.82 52.7066 23.2933 52.2933 22.88C51.8933 22.4667 51.3733 22.26 50.7333 22.26C50.3066 22.26 49.9266 22.3533 49.5933 22.54C49.2599 22.7267 48.9999 22.9867 48.8133 23.32C48.6266 23.6533 48.5333 24.0333 48.5333 24.46L47.6733 23.98C47.6733 23.2467 47.8333 22.6 48.1533 22.04C48.4733 21.4667 48.9133 21.02 49.4733 20.7C50.0466 20.3667 50.6866 20.2 51.3933 20.2C52.1133 20.2 52.7533 20.36 53.3133 20.68C53.8733 21 54.3133 21.4467 54.6333 22.02C54.9533 22.58 55.1133 23.2333 55.1133 23.98V30H52.9133ZM46.3333 30V15.6H48.5333V30H46.3333ZM61.7489 30.2C60.8156 30.2 59.9689 29.98 59.2089 29.54C58.4489 29.0867 57.8422 28.48 57.3889 27.72C56.9489 26.96 56.7289 26.1133 56.7289 25.18C56.7289 24.2467 56.9489 23.4067 57.3889 22.66C57.8422 21.9133 58.4489 21.32 59.2089 20.88C59.9689 20.4267 60.8156 20.2 61.7489 20.2C62.6956 20.2 63.5489 20.42 64.3089 20.86C65.0689 21.3 65.6689 21.9 66.1089 22.66C66.5622 23.4067 66.7889 24.2467 66.7889 25.18C66.7889 26.1133 66.5622 26.96 66.1089 27.72C65.6689 28.48 65.0689 29.0867 64.3089 29.54C63.5489 29.98 62.6956 30.2 61.7489 30.2ZM61.7489 28.08C62.2956 28.08 62.7756 27.96 63.1889 27.72C63.6156 27.4667 63.9422 27.12 64.1689 26.68C64.4089 26.24 64.5289 25.74 64.5289 25.18C64.5289 24.62 64.4089 24.1267 64.1689 23.7C63.9289 23.2733 63.6022 22.94 63.1889 22.7C62.7756 22.4467 62.2956 22.32 61.7489 22.32C61.2156 22.32 60.7356 22.4467 60.3089 22.7C59.8956 22.94 59.5689 23.2733 59.3289 23.7C59.1022 24.1267 58.9889 24.62 58.9889 25.18C58.9889 25.74 59.1022 26.24 59.3289 26.68C59.5689 27.12 59.8956 27.4667 60.3089 27.72C60.7356 27.96 61.2156 28.08 61.7489 28.08ZM73.7584 30.2C73.0251 30.2 72.3718 30.0467 71.7984 29.74C71.2251 29.42 70.7718 28.9867 70.4384 28.44C70.1184 27.8933 69.9584 27.2733 69.9584 26.58V23.82C69.9584 23.1267 70.1251 22.5067 70.4584 21.96C70.7918 21.4133 71.2451 20.9867 71.8184 20.68C72.3918 20.36 73.0384 20.2 73.7584 20.2C74.6251 20.2 75.4051 20.4267 76.0984 20.88C76.8051 21.32 77.3584 21.92 77.7584 22.68C78.1718 23.4267 78.3784 24.2733 78.3784 25.22C78.3784 26.1533 78.1718 27 77.7584 27.76C77.3584 28.5067 76.8051 29.1 76.0984 29.54C75.4051 29.98 74.6251 30.2 73.7584 30.2ZM73.3984 28.12C73.9318 28.12 74.3984 28 74.7984 27.76C75.2118 27.5067 75.5318 27.16 75.7584 26.72C75.9984 26.28 76.1184 25.7733 76.1184 25.2C76.1184 24.6267 75.9984 24.12 75.7584 23.68C75.5318 23.24 75.2118 22.9 74.7984 22.66C74.3984 22.4067 73.9318 22.28 73.3984 22.28C72.8651 22.28 72.3918 22.4067 71.9784 22.66C71.5651 22.9 71.2451 23.24 71.0184 23.68C70.7918 24.12 70.6784 24.6267 70.6784 25.2C70.6784 25.7733 70.7918 26.28 71.0184 26.72C71.2451 27.16 71.5651 27.5067 71.9784 27.76C72.3918 28 72.8651 28.12 73.3984 28.12ZM68.6184 34V20.4H70.8184V22.98L70.4384 25.32L70.8184 27.64V34H68.6184ZM80.52 30V16H82.12L82.82 18.64V30H80.52ZM90.22 30L81.84 19.06L82.12 16L90.5 26.94L90.22 30ZM90.22 30L89.52 27.54V16H91.82V30H90.22ZM98.9559 30.2C98.0226 30.2 97.1759 29.98 96.4159 29.54C95.6559 29.0867 95.0493 28.48 94.5959 27.72C94.1559 26.96 93.9359 26.1133 93.9359 25.18C93.9359 24.2467 94.1559 23.4067 94.5959 22.66C95.0493 21.9133 95.6559 21.32 96.4159 20.88C97.1759 20.4267 98.0226 20.2 98.9559 20.2C99.9026 20.2 100.756 20.42 101.516 20.86C102.276 21.3 102.876 21.9 103.316 22.66C103.769 23.4067 103.996 24.2467 103.996 25.18C103.996 26.1133 103.769 26.96 103.316 27.72C102.876 28.48 102.276 29.0867 101.516 29.54C100.756 29.98 99.9026 30.2 98.9559 30.2ZM98.9559 28.08C99.5026 28.08 99.9826 27.96 100.396 27.72C100.823 27.4667 101.149 27.12 101.376 26.68C101.616 26.24 101.736 25.74 101.736 25.18C101.736 24.62 101.616 24.1267 101.376 23.7C101.136 23.2733 100.809 22.94 100.396 22.7C99.9826 22.4467 99.5026 22.32 98.9559 22.32C98.4226 22.32 97.9426 22.4467 97.5159 22.7C97.1026 22.94 96.7759 23.2733 96.5359 23.7C96.3093 24.1267 96.1959 24.62 96.1959 25.18C96.1959 25.74 96.3093 26.24 96.5359 26.68C96.7759 27.12 97.1026 27.4667 97.5159 27.72C97.9426 27.96 98.4226 28.08 98.9559 28.08ZM108.391 30L104.531 20.4H106.811L109.411 27.38L108.731 27.4L111.271 20.4H112.551L115.091 27.4L114.411 27.38L117.011 20.4H119.291L115.431 30H114.151L111.551 23.36H112.271L109.671 30H108.391Z" fill="white"/>
<defs>
<linearGradient id="paint0_linear_5_164" x1="0" y1="22.5" x2="154" y2="22.5" gradientUnits="userSpaceOnUse">
<stop stop-color="#999999"/>
<stop offset="1" stop-color="white"/>
</linearGradient>
</defs>
</svg>
